<?xml version="1.0" standalone="no"?>
<!DOCTYPE svg PUBLIC "-//W3C//DTD SVG 1.1//EN" "http://www.w3.org/Graphics/SVG/1.1/DTD/svg11.dtd" >
<svg xmlns="http://www.w3.org/2000/svg">
<metadata>
Created by FontForge 20120731 at Wed Apr 13 08:58:52 2016
 By admin
</metadata>
<defs>
<font id="iconfont" horiz-adv-x="1024" >
  <font-face 
    font-family="iconfont"
    font-weight="500"
    font-stretch="normal"
    units-per-em="1024"
    panose-1="2 0 6 3 0 0 0 0 0 0"
    ascent="896"
    descent="-128"
    x-height="792"
    bbox="-0.867348 -217.125 1344 896"
    underline-thickness="50"
    underline-position="-100"
    unicode-range="U+0078-E625"
  />
<missing-glyph horiz-adv-x="374" 
d="M34 0v682h272v-682h-272zM68 34h204v614h-204v-614z" />
    <glyph glyph-name=".notdef" horiz-adv-x="374" 
d="M34 0v682h272v-682h-272zM68 34h204v614h-204v-614z" />
    <glyph glyph-name=".null" horiz-adv-x="0" 
 />
    <glyph glyph-name="nonmarkingreturn" horiz-adv-x="341" 
 />
    <glyph glyph-name="x" unicode="x" horiz-adv-x="1001" 
d="M281 543q-27 -1 -53 -1h-83q-18 0 -36.5 -6t-32.5 -18.5t-23 -32t-9 -45.5v-76h912v41q0 16 -0.5 30t-0.5 18q0 13 -5 29t-17 29.5t-31.5 22.5t-49.5 9h-133v-97h-438v97zM955 310v-52q0 -23 0.5 -52t0.5 -58t-10.5 -47.5t-26 -30t-33 -16t-31.5 -4.5q-14 -1 -29.5 -0.5
t-29.5 0.5h-32l-45 128h-439l-44 -128h-29h-34q-20 0 -45 1q-25 0 -41 9.5t-25.5 23t-13.5 29.5t-4 30v167h911zM163 247q-12 0 -21 -8.5t-9 -21.5t9 -21.5t21 -8.5q13 0 22 8.5t9 21.5t-9 21.5t-22 8.5zM316 123q-8 -26 -14 -48q-5 -19 -10.5 -37t-7.5 -25t-3 -15t1 -14.5
t9.5 -10.5t21.5 -4h37h67h81h80h64h36q23 0 34 12t2 38q-5 13 -9.5 30.5t-9.5 34.5q-5 19 -11 39h-368zM336 498v228q0 11 2.5 23t10 21.5t20.5 15.5t34 6h188q31 0 51.5 -14.5t20.5 -52.5v-227h-327z" />
    <glyph glyph-name="uniE600" unicode="&#xe600;" 
d="M1024 640h-238l-274 -274l-274 274h-238l512 -512z" />
    <glyph glyph-name="uniE601" unicode="&#xe601;" 
d="M512 640l-512 -512h238l274 274l274 -274h238z" />
    <glyph glyph-name="uniE602" unicode="&#xe602;" 
d="M679 482l-34 -21q-43 58 -119 58q-60 0 -100.5 -38.5t-40.5 -95t40 -96.5t101 -40q72 0 119 57l34 -22q-25 -36 -67 -55.5t-91 -19.5q-76 0 -127.5 50.5t-51.5 122.5q0 73 52 125t134 52q47 0 88 -20.5t63 -56.5zM511 704q-133 0 -226.5 -93.5t-93.5 -226t93.5 -226
t226 -93.5t226 93.5t93.5 225.5q0 87 -43 160.5t-116.5 116.5t-159.5 43zM510.5 114q-112.5 0 -191.5 79t-79 191t79 191.5t191.5 79.5t191.5 -79.5t79 -191.5t-79 -191t-191.5 -79z" />
    <glyph glyph-name="uniE603" unicode="&#xe603;" 
d="M277 -47q21 -22 51.5 -22t51.5 22l367 378q22 22 22 53t-22 53l-367 378q-21 22 -51.5 22t-52 -22t-21.5 -53t22 -53l315 -325l-315 -325q-22 -22 -22 -53t22 -53v0z" />
    <glyph glyph-name="uniE604" unicode="&#xe604;" 
d="M747 815q-21 22 -51.5 22t-51.5 -22l-367 -378q-22 -22 -22 -53t22 -53l367 -378q21 -22 51.5 -22t52 22t21.5 53t-22 53l-315 325l315 325q22 22 22 53t-22 53z" />
    <glyph glyph-name="uniE605" unicode="&#xe605;" 
d="M889 472q32 -19 32 -46t-32 -45l-624 -360q-32 -19 -55.5 -5.5t-23.5 50.5v720q0 38 23.5 51.5t55.5 -5.5z" />
    <glyph glyph-name="uniE606" unicode="&#xe606;" 
d="M512 -212l-11 4q-100 39 -174 86t-114.5 89.5t-64 92t-30 86t-6.5 78.5v462l31 -1q68 -2 129 8t97.5 24t67.5 32t40 26t13 13l22 24l22 -24q4 -4 12.5 -11.5t37 -25t62.5 -31t90.5 -24.5t118.5 -11h26l31 1v-462q0 -42 -6.5 -78.5t-30 -86t-64 -92t-114.5 -89.5t-174 -86
zM172 625v-401q0 -20 0.5 -34t7.5 -44t18.5 -53.5t37 -57t60.5 -62t90.5 -61t125.5 -59.5q70 27 125.5 59.5t90.5 61t60.5 62t37 57t18.5 53.5t7.5 44t0.5 34v401q-66 0 -125 10.5t-100.5 28t-68 32.5t-46.5 31q-20 -16 -46.5 -31t-68 -32.5t-100.5 -28t-125 -10.5zM242 275
l62 50l124 -92q7 8 19.5 20t51 47t76.5 66.5t90.5 67.5t98.5 59l24 -27q-9 -7 -23.5 -19.5t-55.5 -54.5t-78.5 -86t-81.5 -109t-74 -129z" />
    <glyph glyph-name="uniE607" unicode="&#xe607;" 
d="M779 -103h-5q-21 1 -37 9l-226 111l-228 -111q-10 -5 -25 -7.5t-34.5 1t-32.5 15.5q-19 14 -27.5 36.5t-4.5 45.5v1l47 240l-179 165l-1 1q-17 17 -23 41t1.5 47t26 39t42.5 20l249 45l112 224q11 23 31.5 35.5t45.5 12.5q24 0 45 -13t32 -35l111 -224l249 -44
q25 -3 43.5 -19t25.5 -39q8 -24 2 -48t-23 -41h-1l-179 -167l45 -241q5 -23 -4 -45.5t-28 -36.5q-20 -18 -50 -18zM772 -24q3 -2 7 -2l3 2q4 3 3 8l-53 282l210 195q3 4 1 9q-1 5 -6 5l-1 1l-289 50l-129 260q-2 4 -7 4t-8 -4l-129 -260l-289 -52q-5 -1 -6 -6h-1q-1 -5 2 -8
l210 -194l-55 -282q0 -5 3 -8l2 -1q5 0 9 1l262 128z" />
    <glyph glyph-name="uniE608" unicode="&#xe608;" 
d="M501 -52q-36 0 -62 17q-20 14 -46 30h-47q-15 0 -15 21q0 20 15 20h53q6 0 11 -3q31 -19 52 -34q19 -13 40 -10h1h280q20 0 38 11t28.5 25.5t19 32.5t11 26t3.5 12q41 180 56 288q3 22 -6.5 41t-23 29.5t-32.5 18.5t-28.5 10.5t-18.5 3.5h-160q-8 0 -14 6t-6 15
q0 28 7 51t15.5 37t29.5 41v1q22 29 23 67.5t-19 71.5q-9 14 -20.5 19.5t-21.5 2.5q-19 -6 -17 -33q2 -54 -21 -94.5t-95 -90.5q-24 -17 -48.5 -42.5t-41 -47.5t-31.5 -45.5t-20 -33t-8 -14.5q-5 -11 -18 -11h-57q-9 0 -15 6t-6 14.5t6 14.5t15 6h45q68 126 156 187
q62 43 81 74t17 75q-2 27 11 47t36 27q24 7 48.5 -4t39.5 -36q26 -44 24.5 -95t-30.5 -90q-24 -31 -32.5 -47t-10.5 -38h140h3q24 -3 48.5 -13t49 -27t38 -46t8.5 -64q-14 -107 -56 -292l-5 -16q-4 -11 -15.5 -34.5t-26 -41.5t-39.5 -32t-54 -14h-280h-2zM312 -34h-215
q-23 0 -40 16.5t-17 40.5v375q0 24 17 40.5t40 16.5h174q22 0 38.5 -15.5t18.5 -39.5l41 -375v-2q0 -24 -16.5 -40.5t-40.5 -16.5zM97 414q-6 0 -11 -4.5t-5 -11.5v-375q0 -7 5 -11.5t11 -4.5h215q7 0 11.5 4.5t4.5 10.5l-40 374q-2 18 -17 18h-174z" />
    <glyph glyph-name="uniE609" unicode="&#xe609;" 
d="M212 832h408q14 0 25 -10l249 -249q10 -12 10 -25v-1v-519q0 -38 -27 -65h-1q-27 -27 -64 -27h-600q-37 0 -65 27q-27 28 -27 65v712q0 37 27 65q27 27 65 27zM311 147h346q9 0 15 6t6 14.5t-6 14.5t-15 6h-346q-8 0 -14 -6t-6 -14.5t6 -14.5t14 -6zM311 292h236
q9 0 14.5 6t5.5 14q0 9 -5.5 15t-14.5 6h-236q-8 0 -14 -6t-6 -15q0 -8 6 -14t14 -6zM311 437h401q9 0 15 6t6 15t-6 15t-15 6h-401q-8 0 -14 -6t-6 -14.5t6 -15t14 -6.5zM600 763h-388q-10 0 -16 -7q-7 -7 -7 -16v-712q0 -9 7 -16q6 -7 16 -7h600q9 0 16 7t7 16v500h-157
q-33 0 -56 23l-1 1q-21 22 -21 54v157zM800 569l-159 159v-122q0 -14 10 -25l1 -1q11 -11 26 -11h122z" />
    <glyph glyph-name="uniE60A" unicode="&#xe60a;" 
d="M899 641l-6 2q-100 20 -188.5 65.5t-181.5 116.5q-6 4 -15 4t-14 -4q-94 -73 -162 -111q-18 -10 -37 -18.5t-46 -17t-37.5 -11.5t-48 -13t-39.5 -10q-13 -4 -17.5 -14.5t-0.5 -22.5q10 -231 81 -387q40 -88 125.5 -158.5t189.5 -119.5q6 -3 12 -3q9 -1 17 3
q100 49 182 120t125 158q72 145 82 394q1 23 -21 27zM789 248q-66 -144 -273 -250q-199 98 -274 239q-68 126 -80 358q116 31 180 59q62 28 167 109q187 -136 354 -172q-11 -207 -74 -343zM695 528q-148 -149 -221 -223q-78 78 -117 118q-12 12 -27.5 6.5t-19.5 -19.5t7 -27
q22 -23 67 -68t68 -69q1 0 2 -1q8 -9 18.5 -10t20.5 9q19 18 107.5 107.5t134.5 136.5q12 12 6.5 27.5t-19 19.5t-27.5 -7z" />
    <glyph glyph-name="uniE60B" unicode="&#xe60b;" 
d="M981 118q-6 34 -20 68t-27.5 56.5t-30 42.5t-22.5 26.5t-10 9.5q3 33 1 56.5t-7.5 38t-11.5 23t-11 10.5l-5 3q-2 71 -20.5 127.5t-44 91t-60.5 59.5t-64 36.5t-60.5 17.5t-43.5 6.5t-19 0.5q-8 0 -19.5 -0.5t-43 -6.5t-60.5 -17.5t-64 -36.5t-61 -59.5t-44.5 -91
t-20.5 -127.5q-2 0 -4.5 -2.5t-10.5 -11.5t-12 -22.5t-8 -38t1 -56.5l-9 -9q-6 -6 -22.5 -26.5t-30.5 -43t-27.5 -56.5t-19.5 -68q-1 -4 -1 -11.5t1 -25.5t4 -31t10 -23.5t17.5 -9t28.5 19.5t41 55q26 -69 72 -131q-4 -1 -9.5 -3.5t-19.5 -11t-24 -19.5t-17.5 -29t-5.5 -38
q0 -4 1 -9.5t10 -19t25.5 -24t53.5 -18t87 -6.5q5 1 14 2t33 5.5t44 11t41.5 18.5t32.5 27h17h17q16 -24 57.5 -40t74.5 -20l32 -4q51 -1 87.5 6t53 18.5t26 23.5t10.5 20l1 9q2 20 -5.5 38t-19 29t-23 19.5t-20.5 11.5l-8 3q20 28 38 60.5t26 51.5l7 19q23 -37 41 -55.5
t28.5 -18.5t18 8.5t10 24t4 30.5t0.5 26v11z" />
    <glyph glyph-name="uniE60C" unicode="&#xe60c;" horiz-adv-x="1025" 
d="M690 793q-15 -2 -29.5 -12.5t-15.5 -27.5q0 -17 14.5 -29.5t26.5 -13.5h8q32 0 55.5 -1t68.5 -12.5t71.5 -32.5t42.5 -66.5t4 -109.5q-15 -64 20 -73q18 -5 31.5 9t20.5 35q0 1 3.5 16t7 31.5t5 41.5t0 48t-10 50t-22.5 49.5t-40 43t-60.5 33.5t-86 19t-114.5 2zM754 400
q-1 0 -3 -0.5t-7 -0.5h-9q-4 0 -8 1.5t-5.5 4.5t-0.5 8.5t6 13.5q20 39 4.5 81t-61.5 57t-127 -23q-20 -11 -31.5 -13t-16 2.5t-5.5 14.5t0 24q2 83 -74 94q-81 10 -193 -60q-125 -78 -188 -200q-10 -18 -17 -37q-43 -114 12 -210.5t171 -143.5q86 -31 170 -38t152 7.5
t127.5 41.5t103 63t72 73.5t39.5 73.5q17 60 12 96t-25 51.5t-42 19.5t-39 2zM409 60q-83 -11 -158 7t-122.5 60.5t-55.5 99.5q-12 86 69.5 160t209.5 91q83 12 158 -6.5t122.5 -61t55.5 -98.5q12 -87 -69.5 -160.5t-209.5 -91.5zM835 461q21 -6 25 22q2 10 2.5 15t0 26.5
t-4 36.5t-14 35t-27.5 32t-46.5 19t-68.5 3q-11 -2 -17.5 -8t-4.5 -15q1 -9 7 -14.5t13 -4.5h1q7 1 13 1.5t20 0t25.5 -3.5t25 -10.5t22.5 -19t14 -32t3 -46.5q1 -3 0 -13t1 -16t10 -8zM354.5 397.5q-66.5 -12.5 -106.5 -59t-30 -99t64 -81t120.5 -16t106.5 59t30 99.5
t-64 81t-120.5 15.5zM343.5 208q-22.5 0 -39 13.5t-16.5 33t16.5 33.5t39 14t39 -14t16.5 -33.5t-16.5 -33t-39 -13.5zM434.5 271q-8.5 0 -16 9t-7.5 21.5t7 22t16 9.5t16 -9.5t7 -22t-7 -21.5t-15.5 -9z" />
    <glyph glyph-name="uniE60D" unicode="&#xe60d;" 
d="M294 -77h436q28 0 49 21t21 50v787q0 29 -21 49.5t-49 20.5h-436q-30 -5 -50 -24t-20 -46v-787q0 -33 20 -52t50 -19zM512 -38q-19 0 -32 12.5t-13 32t13 32t32 12.5t32 -12.5t13 -32.5q0 -15 -13.5 -29.5t-31.5 -14.5zM301 717h429v-615h-429v615z" />
    <glyph glyph-name="uniE60E" unicode="&#xe60e;" 
d="M693 549q15 0 35 -2q-23 109 -127.5 181.5t-238.5 72.5q-98 0 -181 -40.5t-132 -111.5t-49 -156q0 -143 145 -245l-36 -109l127 64q6 -2 25 -5.5t27 -5t22.5 -4t26.5 -3t25 -0.5q16 0 34 1q-11 38 -11 76q0 119 89.5 203t218.5 84zM498 647q21 0 33.5 -12.5t12.5 -33
t-12.5 -33t-33.5 -12.5t-37.5 13t-16.5 32.5t16.5 32.5t37.5 13zM245 556q-22 0 -38.5 13t-16.5 32.5t16.5 32.5t38.5 13q20 0 32.5 -12.5t12.5 -33t-12.5 -33t-32.5 -12.5zM1024 266q0 71 -43 132t-113.5 96t-151.5 35q-129 0 -218.5 -77t-89.5 -186t89.5 -186t218.5 -77
q37 0 109 18l99 -54l-27 90q127 96 127 209zM616 312q-13 0 -24.5 11t-11.5 24.5t11.5 25t24.5 11.5q20 0 33 -11t13 -25.5t-13 -25t-33 -10.5zM815 312q-13 0 -24.5 11t-11.5 24.5t11.5 25t24.5 11.5q20 0 33 -11t13 -25.5t-13 -25t-33 -10.5z" />
    <glyph glyph-name="uniE60F" unicode="&#xe60f;" 
d="M511 686l-441 -426h250l-2 -348h385v349l256 4zM37 860h948v-140h-948v140z" />
    <glyph glyph-name="uniE610" unicode="&#xe610;" 
d="M928 107l-1 -12l-2 -11l-4 -11l-1 -4l-2 -5l-2 -3l-2 -5l-3 -3l-3 -3l-2 -3l-3 -2l-3 -2l-3 -1l-6 -1l-7 3l-4 3l-3 2l-2 3l-4 4l-5 6l-3 7l-4 5l-3 6l-5 11l-6 11l-4 -1l-1 -3l-3 -4l-3 -10q-14 -35 -32 -65l-8 -10l-3 -5l-5 -5l-11 -11l3 -3l5 -3l22 -11l10 -5l9 -6
l9 -6l8 -7l4 -3l3 -4l3 -4l2 -5l2 -4l1 -4l1 -4l1 -5l-1 -3v-3l-1 -3l-1 -3l-3 -5l-3 -6l-4 -4l-3 -4l-2 -2l-6 -5q-35 -26 -118 -30q-60 -3 -135 19l-27 9l-7 3l-11 4q-24 10 -24 11l-25 -11l-10 -4l-7 -2l-27 -9l-14 -4q-65 -19 -133 -13q-77 6 -112 32l-2 3l-3 3l-4 5
l-4 5l-2 5l-2 3v4v3l-1 3l1 4v4l2 5l1 4l3 4l3 4l3 4l4 3l8 7l9 7l9 5l10 6l22 11l5 3l2 2l-10 11l-5 5l-4 5q-23 29 -39 75l-4 11l-2 4l-1 3l-4 1l-6 -11l-5 -11l-4 -6l-3 -6l-4 -6l-5 -6l-4 -5l-2 -2l-2 -2l-4 -4l-7 -3l-6 1l-3 2l-4 1l-2 3l-3 2l-3 4l-2 3l-3 4l-2 3
l-2 5l-1 5l-3 10l-2 11l-2 13l-1 7v21q0 46 38 127l6 12l5 10l6 10l5 9l9 14l12 18l3 4l1 4l-2 6l-3 5l-2 11l-2 5v6v5v4v5l1 5l2 8l2 9l2 8l3 7l4 7l3 6l3 5l5 9l3 5l2 16l1 11l2 13q6 30 16 64l3 8l4 9l8 18l4 8l6 10l5 8l5 10l7 8l6 9l7 8l8 8l8 8l9 7l4 3l5 4l10 7l11 8
l11 6q63 37 144.5 43t158 -23t120.5 -88l7 -9l5 -9l5 -8q41 -72 41 -117l1 -13l2 -11l2 -16l3 -6l5 -8l3 -6l3 -6l3 -6l4 -7l2 -8l2 -9l2 -9v-4l1 -5v-5l-1 -4v-6l-1 -6l-2 -10l-3 -6l-2 -6l1 -3l3 -5l11 -18l10 -13l4 -9l6 -12q18 -36 27.5 -57.5t17.5 -56t3 -62.5z" />
    <glyph glyph-name="uniE611" unicode="&#xe611;" 
d="M390 -6l255 255l51 50l-51 51l-255 255q-11 11 -26 11t-25 -11q-11 -11 -11 -26t11 -25l254 -255l-254 -253q-11 -11 -11 -26t11 -24q11 -11 25.5 -11.5t25.5 9.5z" />
    <glyph glyph-name="uniE612" unicode="&#xe612;" 
d="M849 -157h-681q-28 0 -48 18.5t-20 45.5v476q0 26 20 45t48 19h681q28 0 48 -19t20 -45v-476q0 -27 -20 -45.5t-48 -18.5zM508.5 288q-42.5 0 -72 -28t-29.5 -68q0 -25 13.5 -47t37.5 -35v-90q0 -21 15 -35.5t36 -14.5t36 14.5t15 35.5v90q23 13 37 35t14 47q0 40 -30 68
t-72.5 28zM508.5 701q-84.5 0 -144 -56t-59.5 -135h-103q0 119 90 202.5t217 83.5t216.5 -83.5t89.5 -202.5h-102q0 79 -60 135t-144.5 56z" />
    <glyph glyph-name="uniE613" unicode="&#xe613;" 
d="M0 428v-405q0 -27 18.5 -45.5t45.5 -18.5h896q27 0 45.5 18.5t18.5 45.5v405h-1024zM171 172h341v-43h-341v43zM171 300h512v-43h-512v43zM0 577v-64h1024v64q0 27 -19 45.5t-45 18.5h-896q-27 0 -45.5 -18.5t-18.5 -45.5z" />
    <glyph glyph-name="uniE614" unicode="&#xe614;" 
d="M971 668h-918q-22 0 -37.5 -15.5t-15.5 -37.5v-139h1024v139q0 22 -15.5 37.5t-37.5 15.5zM845 163q-9 0 -11 1v-2l-3 -11q-6 -25 -6 -26h10l1 2v4v2l2 5v1h1q11 0 16 3.5t6 9.5q1 2 1 4t-2 4q-2 3 -12 3h-3zM851 151q-1 -4 -4 -5q-2 -1 -6 -1h-2l3 12v1h1l6 -1
q3 -1 2 -6zM856 84h-2l8 26h2l1 2v-3q0 -3 5 -3h5l1 5h-2q-1 0 -1 1v3h-8q-10 0 -12 -1l-4 -2l1 3h-8l-1 -5l-8 -27h-2l-1 -5h15l-1 -1h8v1h2zM846 84h-6l2 5h6zM850 95q-2 0 -3 -1l-4 -1l2 7h6zM850 104l-4 -1l2 7h6l-1 -5q-2 0 -3 -1zM822 92v-1h-2h-2l1 2h-7l-1 -14
q0 -1 1 -1.5t6 -0.5h5l1 5h-4h-1h-1v1v4h4q2 0 4 1q1 1 1 3l1 3h-5zM856 135q-2 -8 3 -10q3 -1 5 -1t4 2v-1v-1h9v1q1 6 3 13q1 4 2 9q-4 0 -9 -1h-1v-1q-1 1 -3 2q-3 1 -9 -3q-3 -3 -4 -9zM864 135q2 7 5 7q2 0 2 -4v-2q-1 -2 -1 -3l-1 -2q-1 -2 -3 -2t-2 2v4zM775 136
q-2 -9 4 -11q2 -1 5 -1q6 0 10 4q3 3 4 8q1 6 -1 8.5t-8 2.5t-10 -3q-3 -3 -4 -8zM784 135q1 7 4 7t1 -6q-1 -3 -2 -5t-2 -2q-2 0 -2 3q0 1 1 3zM780 99h4l-1 -5h-4l-2 -5h5l-3 -9v-2q1 -1 2 -1h2h10l1 5h-4q-3 0 -3 1l2 6h9l1 5h-8l1 5h8l2 4h-21zM797 115h-9l-2 -4l-2 -1
q0 -1 -1 -1h-1l-2 -5h4q2 0 4 1v1h1l1 1h12l2 5h-9zM773 143q-4 -1 -5 -1h-2h-2v-1h-1v-4q-1 -2 -1 -6q-1 -2 -1 -3q-1 -2 -1 -3v0h4h5v0v2q0 1 0.5 1t1.5 5q0 1 1 3v2q1 4 1 5v0zM713 125q7 0 11 2q5 3 8 12v2q5 20 6 22h-9l-1 -5q-2 -6 -3 -11l-1 -5q-2 -7 -4 -9t-5 -2
q-4 0 -5 4v1l1 6q5 19 6 21h-11v-1l-5 -21v-2l-1 -6q0 -2 1 -4q2 -4 12 -4zM772.5 149q-3.5 2 -7 -0.5t-0.5 -4.5t7 0.5t0.5 4.5zM734 125h9q1 4 1 7l2 8q2 1 3 1l-19 -81q-1 -7 2.5 -12t10.5 -5h3q-7 0 -10.5 5t-1.5 12l15 65h6h1q1 4 2 9v3q2 6 1 8q-1 3 -5 3l10 40
q3 14 17 16h-3q-15 -2 -18 -16l-9 -41q-1 0 -2 -1l-2 -1l1 2l-1 1q-3 -1 -8 -2h-1q0 -6 -2 -13zM861 100h9l-2 -4h-8l-2 -5h8l-6 -8q0 -1 -1 -1h-2h-2l-1 -5h5q4 0 6 3l4 5l1 -5q0 -2 2 -2q1 -1 2 -1h2h2l2 5h-1h-2v2l-1 5h-4l2 2h9l1 5h-8l1 4h8l2 5h-25zM0 -15
q0 -22 15.5 -37.5t37.5 -15.5h918q22 0 37.5 15.5t15.5 37.5v395h-1024v-395zM671 60l30 128q2 7 7.5 11.5t12.5 4.5h61h2h74h2h56q6 0 10 -4.5t2 -11.5l-30 -128q-3 -14 -17 -17h-1h-64q-7 0 -10.5 5t-1.5 12l4 17h1l2 5h-2l3 13h8h3q1 0 3 1q1 0 2 1q1 2 2 5l4 13h-12
q-3 -1 -5 -1l-1 -1l3 12h1q1 4 2 9v3q2 6 1 8l10 43q4 14 18 16h-3q-14 -2 -17 -16l-10 -41q-1 1 -2 1q-3 0 -6 -2l-2 -1l1 2v1q-4 -1 -9 -2q-1 -6 -3 -13q-1 -7 -2 -8h1h8q1 6 2 7l1 8q2 1 3 1q2 0 1 -2q0 -2 -1 -8l-1 -2v-1q0 -2 -1 -3h1h4l-2 -10h-7l-10 -33
q0 -2 -0.5 -3t1.5 -2h2h4h1l-4 -17q-2 -7 1.5 -12t10.5 -5h-63h-2h-64q-7 0 -10.5 5t-2.5 12zM805 84l4 11l-3 -13h-1v2zM810 99v1v-1zM822 102v-3h-1h-1h-7v3h9zM814 106l1 3h10l-1 -2h-7q-1 -1 -3 -1zM288 284q0 7 4.5 11.5t11.5 4.5h31q7 0 12 -4.5t5 -11.5v-48
q0 -6 -5 -11t-12 -5h-31q-7 0 -11.5 5t-4.5 11v48zM176 284q0 7 5 11.5t12 4.5h31q7 0 11.5 -4.5t4.5 -11.5v-48q0 -6 -4.5 -11t-11.5 -5h-31q-7 0 -12 5t-5 11v48zM64 284q0 7 5 11.5t11 4.5h32q6 0 11 -4.5t5 -11.5v-48q0 -6 -5 -11t-11 -5h-32q-6 0 -11 5t-5 11v48z
M880 112v-1h-1h-1l-2 -5h5q4 0 6 3l22 38l-1 1l-8 -2v0l-3 -6l-2 -4v1l-1 10v1q-6 -2 -8 -2h-1v-1q1 -2 1 -5q0 -1 0.5 -3t0.5 -3q1 -6 1 -10q-1 -1 -2.5 -4t-3.5 -5z" />
    <glyph glyph-name="uniE615" unicode="&#xe615;" 
d="M823 354h-68v159q0 101 -71.5 172t-171.5 71t-171.5 -71t-71.5 -172v-159h-68q-25 0 -42.5 -18t-17.5 -42v-438q0 -25 17.5 -42.5t42.5 -17.5h622q25 0 42.5 17.5t17.5 42.5v438q0 24 -17.5 42t-42.5 18zM546 63v-95q0 -8 -8 -8h-52q-8 0 -8 8v95q-18 10 -29.5 27.5
t-11.5 39.5q0 31 22 52.5t53 21.5t53 -21.5t22 -52.5q0 -22 -11.5 -39.5t-29.5 -27.5zM662 354h-299v155q0 62 43.5 106t105.5 44t106 -44t44 -106v-155z" />
    <glyph glyph-name="uniE616" unicode="&#xe616;" 
d="M813 509h-602q-32 0 -54.5 -22.5t-22.5 -54.5v-482q0 -31 22.5 -54t54.5 -23h602q32 0 54.5 23t22.5 54v482q0 32 -22.5 54.5t-54.5 22.5zM560 233v-156q0 -35 -9 -53t-39 -18t-39 18t-9 54l-1 155q-3 3 -8.5 9t-14 25t-8.5 40q0 33 23 52t57 19t57 -19t23 -52
q0 -21 -8 -39t-16 -27zM663 577v91q0 62 -44 106.5t-106.5 44.5t-107 -44t-44.5 -107v-91h-76v91q0 94 66.5 160.5t160.5 66.5t160.5 -66.5t66.5 -160.5v-91h-76z" />
    <glyph glyph-name="uniE617" unicode="&#xe617;" 
d="M976 -128h-928q-20 0 -34 14t-14 34v368h1024v-368q0 -20 -14 -34t-34 -14zM96 -32h192v48h-192v-48zM576 112h-480v-48h480v48zM0 528q0 20 14 34t34 14h928q20 0 34 -14t14 -34v-144h-1024v144z" />
    <glyph glyph-name="uniE618" unicode="&#xe618;" 
d="M955 21q3 9 3 17v496q0 7 -3 16l-291 -249zM512 240l77 63l38 31l293 251q-9 2 -15 2h-786q-7 0 -15 -2l293 -251l38 -31zM905 -15q6 0 14 2l-294 282l-113 -92l-114 92l-293 -282q8 -2 14 -2h786zM68 550q-2 -9 -2 -16v-496q0 -8 3 -17l291 279z" />
    <glyph glyph-name="uniE619" unicode="&#xe619;" 
d="M584 175q0 30 -21.5 51.5t-51.5 21.5t-51.5 -21.5t-21.5 -51.5q0 -25 14.5 -44.5t37.5 -26.5v-56q0 -9 6 -15t15 -6t15 6t6 15v56q23 7 37.5 26.5t14.5 44.5zM111 345v-463q0 -37 24.5 -63.5t59.5 -26.5h632q35 0 59.5 26.5t24.5 63.5v463h-800zM877 -93q0 -35 -20.5 -57
t-54.5 -22h-582q-34 0 -54.5 22t-20.5 57v401h732v-401zM510 806q-131 0 -224 -90t-93 -217v-147h38v143q0 119 78.5 196t200.5 77q111 0 187.5 -66t88.5 -171h38q-12 116 -102 195.5t-212 79.5z" />
    <glyph glyph-name="uniE61A" unicode="&#xe61a;" 
d="M490 -192h-29h-247h-154v501h-40v243h191q-41 28 -58 69q-25 59 -2 111q18 41 62 53q22 7 44 7q37 0 67 -16q14 -6 36 -26q28 -26 65 -90l8 -14q26 -43 44 -59q15 -15 34 -15h2q20 0 36 16q18 17 43 60q7 14 12 20q43 75 85 102q34 22 78 22q19 0 38 -5q40 -10 59 -40
q28 -40 16 -97q-11 -56 -61 -94l-6 -4h191v-243h-40v-282v-207v-12h-313h-86h-75zM643 154v-283h258v438h-258v-155zM381 -129v24v414h-258v-438h205h53zM581 -129v618h-138v-618h138zM942 372v117h-299v-117h149h150zM381 372v117h-299v-117h52h247zM645 572h35q45 2 83 22
q44 24 55 63q9 34 -5 55q-8 12 -27 16q-10 2 -19 2q-23 0 -40 -10q-27 -15 -52 -55q-9 -13 -24 -40q-22 -36 -34 -53h28zM407 572q-12 17 -33 53q-15 24 -22 36q-23 36 -44 51q-21 18 -50 18q-3 0 -5 -1q-28 -1 -39 -14q-16 -19 -9 -53q7 -36 44 -61q44 -29 105 -29h49h4z
" />
    <glyph glyph-name="uniE61B" unicode="&#xe61b;" 
d="M838 780h-652q-25 0 -42.5 -18t-17.5 -43v-838q0 -25 17.5 -43t42.5 -18h652q25 0 42.5 18t17.5 43v838q0 25 -17.5 43t-42.5 18zM881 -106q0 -24 -14.5 -38.5t-39.5 -14.5h-630q-24 0 -38.5 14.5t-14.5 38.5v812q0 24 14.5 38.5t38.5 14.5h630q25 0 39.5 -14.5
t14.5 -38.5v-812zM213 640h299v-17h-299v17zM213 491h299v-17h-299v17zM213 361h299v-18h-299v18zM218 105h421v-18h-421v18zM213 236h426v-18h-426v18z" />
    <glyph glyph-name="uniE61C" unicode="&#xe61c;" 
d="M159 427v-435v1h706v-1v435h-706v0zM105 427q0 22 16 38t38 16h706q22 0 38 -16t16 -38v-435q0 -22 -16 -38t-38 -16h-706q-22 0 -38 16t-16 38v435zM538 207q1 -3 1 -7v-112q0 -11 -8 -19t-19 -8t-19 8t-8 19v112q0 4 1 7q-16 7 -25.5 22t-9.5 33q0 25 18 42.5t43 17.5
t43 -17.5t18 -42.5q0 -18 -9.5 -33t-25.5 -22zM257 578q1 105 75.5 179t179.5 74q106 0 180.5 -74.5t74.5 -180.5q0 -11 -8 -19t-19 -8t-19 8t-8 19q0 83 -59 141.5t-142 58.5t-142 -58.5t-59 -141.5v-105q0 -11 -8 -19t-19 -8t-19 8t-8 19v107v0z" />
    <glyph glyph-name="uniE61D" unicode="&#xe61d;" horiz-adv-x="1209" 
d="M606.5 860q-97.5 0 -186.5 -38t-153 -102t-102 -153t-38 -186.5t38 -186.5t102 -153t153 -102t186.5 -38t186.5 38t153 102t102 153t38 186.5t-38 186.5t-102 153t-153 102t-186.5 38zM610.5 -50q-116.5 0 -215.5 57.5t-157 156.5t-58 216t58 216t157 156.5t215.5 57.5
t215.5 -57.5t157 -156.5t58 -216t-58 -216t-157 -156.5t-215.5 -57.5zM783 288q12 0 20.5 -7t8.5 -17q0 -9 -8.5 -15.5t-20.5 -6.5h-145v-82q0 -9 -8.5 -16t-22.5 -7q-12 0 -20.5 7t-8.5 16v82h-145q-12 0 -20.5 6.5t-8.5 16.5t8.5 16.5t20.5 6.5h145v70h-145
q-12 0 -20.5 6.5t-8.5 17.5q0 9 8.5 15.5t20.5 6.5h123l-127 187q-6 7 -2 16t16 14q10 4 21.5 1t17.5 -10l127 -188l127 188q5 9 17 11.5t23 -2.5q11 -4 14.5 -13t-2.5 -17v1l-126 -188h121q12 0 20.5 -6.5t8.5 -16.5t-8.5 -16.5t-20.5 -6.5h-145v-70h145zM783 288z" />
    <glyph glyph-name="uniE61E" unicode="&#xe61e;" 
d="M0 -128h1024v1024z" />
    <glyph glyph-name="uniE61F" unicode="&#xe61f;" 
d="M1024 -128v1024h-1024z" />
    <glyph glyph-name="uniE620" unicode="&#xe620;" horiz-adv-x="1346" 
d="M431 5l-322 322l-108 -107l430 -430l913 913l-108 107z" />
    <glyph glyph-name="uniE621" unicode="&#xe621;" 
d="M1024 805l-91 90l-421 -421l-421 421l-91 -90l422 -421l-422 -422l91 -90l421 421l421 -421l91 90l-422 422z" />
    <glyph glyph-name="uniE622" unicode="&#xe622;" 
d="M512 598q-63 0 -107 -44t-44 -106.5t44 -107t106.5 -44.5t107 44.5t44.5 107t-44.5 106.5t-106.5 44zM512 812q-104 0 -199 -41t-163.5 -109.5t-109 -163t-40.5 -198.5t40.5 -199t109 -163.5t163.5 -109t199 -40.5t199 40.5t163.5 109t109 163.5t40.5 199t-40.5 198.5
t-109 163t-163.5 109.5t-199 41zM776 -5q-5 0 -10.5 5t-9.5 9l-3 4q-15 98 -83 162.5t-158 64.5t-158 -64.5t-83 -162.5q-5 -17 -23 -18q-12 -1 -20 0.5t-11 4.5t-5 6t-2 5l1 2q3 88 54 158.5t132 102.5q-42 29 -67 74.5t-25 98.5q0 86 60.5 147t146.5 61t146.5 -61
t60.5 -147q0 -53 -25 -98.5t-67 -74.5q81 -32 132 -102.5t54 -158.5q0 -10 -14 -16q-9 -4 -23 -2zM776 -5z" />
    <glyph glyph-name="uniE623" unicode="&#xe623;" 
d="M906 275h-320q-20 0 -34.5 -14.5t-14.5 -34.5v-320q0 -21 14.5 -35.5t34.5 -14.5h320q21 0 35.5 14.5t14.5 35.5v320q0 20 -14.5 34.5t-35.5 14.5zM906 -94h-320v320h320v-320zM438 275h-320q-21 0 -35.5 -14.5t-14.5 -34.5v-320q0 -21 14.5 -35.5t35.5 -14.5h320
q20 0 34.5 14.5t14.5 35.5v320q0 20 -14.5 34.5t-34.5 14.5zM438 -94h-320v320h320v-320zM906 744h-320q-20 0 -34.5 -14.5t-14.5 -35.5v-320q0 -20 14.5 -34.5t34.5 -14.5h320q21 0 35.5 14.5t14.5 34.5v320q0 21 -14.5 35.5t-35.5 14.5zM906 374h-320v320h320v-320z
M438 744h-320q-21 0 -35.5 -14.5t-14.5 -35.5v-320q0 -20 14.5 -34.5t35.5 -14.5h320q20 0 34.5 14.5t14.5 34.5v320q0 21 -14.5 35.5t-34.5 14.5zM438 374h-320v320h320v-320z" />
    <glyph glyph-name="uniE624" unicode="&#xe624;" 
d="M152 688h305q9 0 14.5 -6t7.5 -18.5t2.5 -20.5t0 -25.5t-0.5 -22.5v-169q0 -6 0.5 -21.5t0 -24t-1.5 -19.5t-5.5 -17.5t-11.5 -9.5t-21 -3.5t-33.5 0.5t-23.5 1h-162q-6 0 -23 -0.5t-25.5 -0.5t-20.5 2t-18 7.5t-7 15.5v309q6 18 23 23zM194 619v-220h220v223h-219
q-1 0 -1 -3zM562 688h305q20 -7 23 -27v-301q-5 -22 -21 -27q-9 -2 -22 -2.5t-30.5 0.5t-24.5 1h-157q-7 0 -24.5 -1t-31 -1t-21.5 3t-12.5 9.5t-6.5 19t-2 21.5t0.5 25.5t0.5 22.5v158q0 8 -0.5 25.5t-0.5 27t2 21.5t7.5 18t15.5 7zM604 619v-220h220v223h-219q-2 0 -1 -3z
M294 554q23 5 39 -8t17 -35q0 -27 -22 -40t-45 -2q-16 9 -21.5 28t3.5 36.5t29 20.5zM704 554q39 8 51 -26q10 -30 -10 -51q-16 -16 -41 -12q-22 4 -30.5 24t0 40.5t30.5 24.5zM455 -84h-302q-19 6 -24 25v308q6 19 20 23q9 2 22 2.5t30.5 -0.5t24.5 -1h156q7 0 24.5 1
t31 0.5t22.5 -2.5q8 -3 13 -9.5t6.5 -18.5t2 -21t0 -25.5t-0.5 -23.5v-162q0 -6 0.5 -24.5t0 -26.5t-2.5 -20t-8 -18t-16 -7zM194 203v-220h220v223h-219q-1 0 -1 -3zM890 245v-86q-1 -7 -0.5 -46t-0.5 -47h-218v50q-5 2 -33 1.5t-34 -0.5q-2 -17 -1.5 -99.5t0.5 -101.5h-40
q-10 2 -16 8.5t-8 18.5t-2 21.5t0.5 27t0.5 24.5v158q0 7 -1 25.5t-0.5 32t2.5 21.5q2 5 4.5 8.5t7 5.5t8 3.5t11 2t11.5 0.5h13h13h148v-136h69q0 12 -0.5 68.5t1.5 67.5q17 0 31 -0.5t23.5 -7t10.5 -20.5zM300 140q25 2 40.5 -17.5t6.5 -45.5q-9 -23 -33.5 -27t-42.5 12.5
t-10.5 45t39.5 32.5zM745 -84h-74v41q0 33 1 39h73v-80zM890 -4v-52q-4 -21 -24 -28h-52q0 8 -0.5 41t1.5 39h75z" />
    <glyph glyph-name="uniE625" unicode="&#xe625;" 
d="M196 615h142v-142h-142v142zM686 615h142v-142h-142v142zM196 128h142v-142h-142v142zM866 265h106v-107h-106v107zM760 158h106v-106h-106v106zM866 52h106v-106h-106v106zM760 -86h212v-70h-212v70zM541 52h140v-69h-71v-139h-69v208zM541 265v-177h69v108h140v69h-209
zM483 328h-431v431h431v-431zM437 713h-339v-339h339v339zM972 328h-431v431h431v-431zM926 713h-339v-339h339v339zM483 -159h-431v431h431v-431zM437 226h-339v-339h339v339z" />
  </font>
</defs>
</svg>
